<svg xmlns="http://www.w3.org/2000/svg" xmlns:xlink="http://www.w3.org/1999/xlink" width="26px" height="26px">
    <path fill="rgb(217, 217, 217)"
          d="M14.414,12.999 L25.021,23.606 C25.411,23.996 25.411,24.629 25.021,25.020 C24.630,25.410 23.997,25.410 23.606,25.020 L13.000,14.413 L2.393,25.020 C2.003,25.410 1.370,25.410 0.979,25.020 C0.589,24.629 0.589,23.996 0.979,23.606 L11.586,12.999 L0.979,2.393 C0.589,2.002 0.589,1.369 0.979,0.979 C1.370,0.588 2.003,0.588 2.393,0.979 L13.000,11.585 L23.606,0.979 C23.997,0.588 24.630,0.588 25.021,0.979 C25.411,1.369 25.411,2.002 25.021,2.393 L14.414,12.999 Z"/>
</svg>